<mxfile host="Electron" agent="Mozilla/5.0 (Windows NT 10.0; Win64; x64) AppleWebKit/537.36 (KHTML, like Gecko) draw.io/26.1.1 Chrome/132.0.6834.210 Electron/34.3.3 Safari/537.36" version="26.1.1">
  <diagram name="Page-1" id="NAD3L0GjAl9JPKndaHO3">
    <mxGraphModel dx="1098" dy="820" grid="1" gridSize="10" guides="1" tooltips="1" connect="1" arrows="1" fold="1" page="1" pageScale="1" pageWidth="850" pageHeight="1100" math="0" shadow="0">
      <root>
        <mxCell id="0" />
        <mxCell id="1" parent="0" />
        <mxCell id="KzoReMEz689WgL0waZI6-4" value="" style="edgeStyle=orthogonalEdgeStyle;rounded=0;orthogonalLoop=1;jettySize=auto;html=1;" edge="1" parent="1" source="KzoReMEz689WgL0waZI6-1" target="KzoReMEz689WgL0waZI6-3">
          <mxGeometry relative="1" as="geometry">
            <Array as="points">
              <mxPoint x="120" y="80" />
              <mxPoint x="120" y="80" />
            </Array>
          </mxGeometry>
        </mxCell>
        <mxCell id="KzoReMEz689WgL0waZI6-1" value="begin" style="ellipse;whiteSpace=wrap;html=1;" vertex="1" parent="1">
          <mxGeometry x="60" y="10" width="120" height="50" as="geometry" />
        </mxCell>
        <mxCell id="KzoReMEz689WgL0waZI6-3" value="&lt;span style=&quot;&quot;&gt;Declarations&lt;/span&gt;&lt;div style=&quot;&quot;&gt;&lt;span style=&quot;white-space: pre;&quot;&gt;&#x9;&lt;/span&gt;string HEADER_MESSAGE= &quot;Hazel&#39;s Housecleaning Service&#39;s Labor and Materials Cost&quot;&lt;/div&gt;&lt;div style=&quot;&quot;&gt;&lt;span style=&quot;white-space: pre;&quot;&gt;&#x9;&lt;/span&gt;string PROJECTED_HOURS_PROMPT = &quot;What are the projected hours of the project? &quot;&lt;/div&gt;&lt;div style=&quot;&quot;&gt;&lt;span style=&quot;white-space: pre;&quot;&gt;&#x9;&lt;/span&gt;string WHOLESALE_COST_PROMPT = &quot;What are the wholesale costs of the materials? &quot;&amp;nbsp;&lt;/div&gt;&lt;div style=&quot;&quot;&gt;&lt;span style=&quot;white-space: pre;&quot;&gt;&#x9;&lt;/span&gt;string COST_OF_JOB_DISPLAY = &quot;This is the total projected cost of the job: &quot;&lt;/div&gt;&lt;div style=&quot;&quot;&gt;&lt;span style=&quot;white-space: pre;&quot;&gt;&#x9;&lt;/span&gt;string NO_MORE_JOBS = &quot;This is the end of the program.&quot;&lt;br&gt;&lt;div&gt;&lt;span style=&quot;white-space: pre;&quot;&gt;&#x9;&lt;/span&gt;num QUIT = 0&lt;br&gt;&lt;/div&gt;&lt;div&gt;&lt;span style=&quot;white-space: pre;&quot;&gt;&#x9;&lt;/span&gt;num MARK_UP = 1.2&lt;br&gt;&lt;/div&gt;&lt;div&gt;&lt;span style=&quot;white-space: pre;&quot;&gt;&#x9;&lt;/span&gt;num LABOR_COST = 30&lt;br&gt;&lt;/div&gt;&lt;div&gt;&lt;span style=&quot;white-space: pre;&quot;&gt;&#x9;&lt;/span&gt;num projectedHours&lt;br&gt;&lt;/div&gt;&lt;div&gt;&lt;span style=&quot;white-space: pre;&quot;&gt;&#x9;&lt;/span&gt;num wholesaleMatsCost&lt;/div&gt;&lt;div&gt;&lt;span style=&quot;white-space: pre;&quot;&gt;&#x9;&lt;/span&gt;num markedUpMats&lt;br&gt;&lt;/div&gt;&lt;div&gt;&lt;span style=&quot;white-space: pre;&quot;&gt;&#x9;&lt;/span&gt;num laborCostOfJob&lt;br&gt;&lt;/div&gt;&lt;div&gt;&lt;span style=&quot;white-space: pre;&quot;&gt;&#x9;&lt;/span&gt;num costOfJob&lt;/div&gt;&lt;/div&gt;" style="rounded=0;whiteSpace=wrap;html=1;align=left;" vertex="1" parent="1">
          <mxGeometry x="10" y="90" width="520" height="200" as="geometry" />
        </mxCell>
        <mxCell id="KzoReMEz689WgL0waZI6-12" value="" style="edgeStyle=orthogonalEdgeStyle;rounded=0;orthogonalLoop=1;jettySize=auto;html=1;" edge="1" parent="1" source="KzoReMEz689WgL0waZI6-7" target="KzoReMEz689WgL0waZI6-10">
          <mxGeometry relative="1" as="geometry" />
        </mxCell>
        <mxCell id="KzoReMEz689WgL0waZI6-7" value="" style="swimlane;whiteSpace=wrap;html=1;" vertex="1" parent="1">
          <mxGeometry x="20" y="350" width="200" height="60" as="geometry" />
        </mxCell>
        <mxCell id="KzoReMEz689WgL0waZI6-8" value="houseKeeping()" style="text;html=1;align=center;verticalAlign=middle;resizable=0;points=[];autosize=1;strokeColor=none;fillColor=none;" vertex="1" parent="KzoReMEz689WgL0waZI6-7">
          <mxGeometry x="45" y="28" width="110" height="30" as="geometry" />
        </mxCell>
        <mxCell id="KzoReMEz689WgL0waZI6-25" value="" style="edgeStyle=orthogonalEdgeStyle;rounded=0;orthogonalLoop=1;jettySize=auto;html=1;entryX=0;entryY=0.5;entryDx=0;entryDy=0;" edge="1" parent="1" source="KzoReMEz689WgL0waZI6-10" target="KzoReMEz689WgL0waZI6-23">
          <mxGeometry relative="1" as="geometry" />
        </mxCell>
        <mxCell id="KzoReMEz689WgL0waZI6-57" value="" style="edgeStyle=orthogonalEdgeStyle;rounded=0;orthogonalLoop=1;jettySize=auto;html=1;entryX=0.5;entryY=0;entryDx=0;entryDy=0;" edge="1" parent="1" source="KzoReMEz689WgL0waZI6-10" target="KzoReMEz689WgL0waZI6-52">
          <mxGeometry relative="1" as="geometry" />
        </mxCell>
        <mxCell id="KzoReMEz689WgL0waZI6-10" value="projectedHours not equal to QUIT?" style="rhombus;whiteSpace=wrap;html=1;" vertex="1" parent="1">
          <mxGeometry x="15" y="440" width="210" height="100" as="geometry" />
        </mxCell>
        <mxCell id="KzoReMEz689WgL0waZI6-16" value="" style="edgeStyle=orthogonalEdgeStyle;rounded=0;orthogonalLoop=1;jettySize=auto;html=1;" edge="1" parent="1" source="KzoReMEz689WgL0waZI6-13" target="KzoReMEz689WgL0waZI6-15">
          <mxGeometry relative="1" as="geometry" />
        </mxCell>
        <mxCell id="KzoReMEz689WgL0waZI6-13" value="houseKeeping()" style="ellipse;whiteSpace=wrap;html=1;" vertex="1" parent="1">
          <mxGeometry x="340" y="560" width="120" height="50" as="geometry" />
        </mxCell>
        <mxCell id="KzoReMEz689WgL0waZI6-18" value="" style="edgeStyle=orthogonalEdgeStyle;rounded=0;orthogonalLoop=1;jettySize=auto;html=1;" edge="1" parent="1" source="KzoReMEz689WgL0waZI6-15" target="KzoReMEz689WgL0waZI6-17">
          <mxGeometry relative="1" as="geometry" />
        </mxCell>
        <mxCell id="KzoReMEz689WgL0waZI6-15" value="print&lt;div&gt;HEADER_MESSAGE&lt;/div&gt;" style="shape=parallelogram;perimeter=parallelogramPerimeter;whiteSpace=wrap;html=1;fixedSize=1;" vertex="1" parent="1">
          <mxGeometry x="325" y="630" width="150" height="40" as="geometry" />
        </mxCell>
        <mxCell id="KzoReMEz689WgL0waZI6-20" value="" style="edgeStyle=orthogonalEdgeStyle;rounded=0;orthogonalLoop=1;jettySize=auto;html=1;" edge="1" parent="1" source="KzoReMEz689WgL0waZI6-17" target="KzoReMEz689WgL0waZI6-19">
          <mxGeometry relative="1" as="geometry" />
        </mxCell>
        <mxCell id="KzoReMEz689WgL0waZI6-17" value="print&lt;div&gt;PROJECTED_HOURS_PROMPT&lt;/div&gt;" style="shape=parallelogram;perimeter=parallelogramPerimeter;whiteSpace=wrap;html=1;fixedSize=1;" vertex="1" parent="1">
          <mxGeometry x="290" y="690" width="220" height="40" as="geometry" />
        </mxCell>
        <mxCell id="KzoReMEz689WgL0waZI6-22" value="" style="edgeStyle=orthogonalEdgeStyle;rounded=0;orthogonalLoop=1;jettySize=auto;html=1;" edge="1" parent="1" source="KzoReMEz689WgL0waZI6-19" target="KzoReMEz689WgL0waZI6-21">
          <mxGeometry relative="1" as="geometry" />
        </mxCell>
        <mxCell id="KzoReMEz689WgL0waZI6-19" value="input&lt;br&gt;&lt;div&gt;projectedHours&lt;/div&gt;" style="shape=parallelogram;perimeter=parallelogramPerimeter;whiteSpace=wrap;html=1;fixedSize=1;" vertex="1" parent="1">
          <mxGeometry x="340" y="750" width="120" height="40" as="geometry" />
        </mxCell>
        <mxCell id="KzoReMEz689WgL0waZI6-21" value="return" style="ellipse;whiteSpace=wrap;html=1;" vertex="1" parent="1">
          <mxGeometry x="340" y="810" width="120" height="50" as="geometry" />
        </mxCell>
        <mxCell id="KzoReMEz689WgL0waZI6-23" value="" style="swimlane;whiteSpace=wrap;html=1;" vertex="1" parent="1">
          <mxGeometry x="290" y="460" width="200" height="60" as="geometry" />
        </mxCell>
        <mxCell id="KzoReMEz689WgL0waZI6-24" value="detailLoop()" style="text;html=1;align=center;verticalAlign=middle;resizable=0;points=[];autosize=1;strokeColor=none;fillColor=none;" vertex="1" parent="KzoReMEz689WgL0waZI6-23">
          <mxGeometry x="55" y="28" width="90" height="30" as="geometry" />
        </mxCell>
        <mxCell id="KzoReMEz689WgL0waZI6-26" value="Yes" style="text;html=1;align=center;verticalAlign=middle;resizable=0;points=[];autosize=1;strokeColor=none;fillColor=none;" vertex="1" parent="1">
          <mxGeometry x="240" y="470" width="40" height="30" as="geometry" />
        </mxCell>
        <mxCell id="KzoReMEz689WgL0waZI6-28" value="" style="endArrow=classic;html=1;rounded=0;" edge="1" parent="1">
          <mxGeometry width="50" height="50" relative="1" as="geometry">
            <mxPoint x="490" y="490" as="sourcePoint" />
            <mxPoint x="120" y="420" as="targetPoint" />
            <Array as="points">
              <mxPoint x="510" y="490" />
              <mxPoint x="510" y="420" />
            </Array>
          </mxGeometry>
        </mxCell>
        <mxCell id="KzoReMEz689WgL0waZI6-33" value="" style="edgeStyle=orthogonalEdgeStyle;rounded=0;orthogonalLoop=1;jettySize=auto;html=1;" edge="1" parent="1" source="KzoReMEz689WgL0waZI6-29" target="KzoReMEz689WgL0waZI6-32">
          <mxGeometry relative="1" as="geometry" />
        </mxCell>
        <mxCell id="KzoReMEz689WgL0waZI6-29" value="detailLoop()" style="ellipse;whiteSpace=wrap;html=1;" vertex="1" parent="1">
          <mxGeometry x="625" y="10" width="120" height="50" as="geometry" />
        </mxCell>
        <mxCell id="KzoReMEz689WgL0waZI6-35" value="" style="edgeStyle=orthogonalEdgeStyle;rounded=0;orthogonalLoop=1;jettySize=auto;html=1;" edge="1" parent="1" source="KzoReMEz689WgL0waZI6-32" target="KzoReMEz689WgL0waZI6-34">
          <mxGeometry relative="1" as="geometry" />
        </mxCell>
        <mxCell id="KzoReMEz689WgL0waZI6-32" value="print&amp;nbsp;&lt;div&gt;WHOLESALE_COST_PROMPT&lt;/div&gt;" style="shape=parallelogram;perimeter=parallelogramPerimeter;whiteSpace=wrap;html=1;fixedSize=1;" vertex="1" parent="1">
          <mxGeometry x="580" y="80" width="210" height="40" as="geometry" />
        </mxCell>
        <mxCell id="KzoReMEz689WgL0waZI6-37" value="" style="edgeStyle=orthogonalEdgeStyle;rounded=0;orthogonalLoop=1;jettySize=auto;html=1;" edge="1" parent="1" source="KzoReMEz689WgL0waZI6-34" target="KzoReMEz689WgL0waZI6-36">
          <mxGeometry relative="1" as="geometry" />
        </mxCell>
        <mxCell id="KzoReMEz689WgL0waZI6-34" value="input&lt;div&gt;wholesaleMatsCost&lt;/div&gt;" style="shape=parallelogram;perimeter=parallelogramPerimeter;whiteSpace=wrap;html=1;fixedSize=1;" vertex="1" parent="1">
          <mxGeometry x="610" y="140" width="150" height="40" as="geometry" />
        </mxCell>
        <mxCell id="KzoReMEz689WgL0waZI6-39" value="" style="edgeStyle=orthogonalEdgeStyle;rounded=0;orthogonalLoop=1;jettySize=auto;html=1;" edge="1" parent="1" source="KzoReMEz689WgL0waZI6-36" target="KzoReMEz689WgL0waZI6-38">
          <mxGeometry relative="1" as="geometry" />
        </mxCell>
        <mxCell id="KzoReMEz689WgL0waZI6-36" value="markedUpMats =&amp;nbsp;&lt;div&gt;wholesaleMatsCost * MARK_UP&lt;/div&gt;" style="rounded=0;whiteSpace=wrap;html=1;" vertex="1" parent="1">
          <mxGeometry x="592.5" y="200" width="185" height="40" as="geometry" />
        </mxCell>
        <mxCell id="KzoReMEz689WgL0waZI6-41" value="" style="edgeStyle=orthogonalEdgeStyle;rounded=0;orthogonalLoop=1;jettySize=auto;html=1;" edge="1" parent="1" source="KzoReMEz689WgL0waZI6-38" target="KzoReMEz689WgL0waZI6-40">
          <mxGeometry relative="1" as="geometry" />
        </mxCell>
        <mxCell id="KzoReMEz689WgL0waZI6-38" value="laborCostOfJob =&amp;nbsp;&lt;div&gt;LABOR_COST * projectedHours&lt;/div&gt;" style="rounded=0;whiteSpace=wrap;html=1;" vertex="1" parent="1">
          <mxGeometry x="592.5" y="260" width="185" height="40" as="geometry" />
        </mxCell>
        <mxCell id="KzoReMEz689WgL0waZI6-43" value="" style="edgeStyle=orthogonalEdgeStyle;rounded=0;orthogonalLoop=1;jettySize=auto;html=1;" edge="1" parent="1" source="KzoReMEz689WgL0waZI6-40" target="KzoReMEz689WgL0waZI6-42">
          <mxGeometry relative="1" as="geometry" />
        </mxCell>
        <mxCell id="KzoReMEz689WgL0waZI6-40" value="costOfJob =&amp;nbsp;&lt;div&gt;laborCostOfJob + markedUpMats&lt;/div&gt;" style="rounded=0;whiteSpace=wrap;html=1;" vertex="1" parent="1">
          <mxGeometry x="592.5" y="320" width="185" height="40" as="geometry" />
        </mxCell>
        <mxCell id="KzoReMEz689WgL0waZI6-49" value="" style="edgeStyle=orthogonalEdgeStyle;rounded=0;orthogonalLoop=1;jettySize=auto;html=1;" edge="1" parent="1" source="KzoReMEz689WgL0waZI6-42" target="KzoReMEz689WgL0waZI6-45">
          <mxGeometry relative="1" as="geometry" />
        </mxCell>
        <mxCell id="KzoReMEz689WgL0waZI6-42" value="print&lt;div&gt;COST_OF_JOB_DISPLAY + &quot;$&quot; + costOfJob&lt;/div&gt;" style="shape=parallelogram;perimeter=parallelogramPerimeter;whiteSpace=wrap;html=1;fixedSize=1;" vertex="1" parent="1">
          <mxGeometry x="575" y="380" width="220" height="50" as="geometry" />
        </mxCell>
        <mxCell id="KzoReMEz689WgL0waZI6-50" value="" style="edgeStyle=orthogonalEdgeStyle;rounded=0;orthogonalLoop=1;jettySize=auto;html=1;" edge="1" parent="1" source="KzoReMEz689WgL0waZI6-45" target="KzoReMEz689WgL0waZI6-46">
          <mxGeometry relative="1" as="geometry" />
        </mxCell>
        <mxCell id="KzoReMEz689WgL0waZI6-45" value="print&lt;div&gt;PROJECTED_HOURS_PROMPT&lt;/div&gt;" style="shape=parallelogram;perimeter=parallelogramPerimeter;whiteSpace=wrap;html=1;fixedSize=1;" vertex="1" parent="1">
          <mxGeometry x="575" y="450" width="220" height="40" as="geometry" />
        </mxCell>
        <mxCell id="KzoReMEz689WgL0waZI6-51" value="" style="edgeStyle=orthogonalEdgeStyle;rounded=0;orthogonalLoop=1;jettySize=auto;html=1;" edge="1" parent="1" source="KzoReMEz689WgL0waZI6-46" target="KzoReMEz689WgL0waZI6-47">
          <mxGeometry relative="1" as="geometry" />
        </mxCell>
        <mxCell id="KzoReMEz689WgL0waZI6-46" value="input&lt;br&gt;&lt;div&gt;projectedHours&lt;/div&gt;" style="shape=parallelogram;perimeter=parallelogramPerimeter;whiteSpace=wrap;html=1;fixedSize=1;" vertex="1" parent="1">
          <mxGeometry x="625" y="510" width="120" height="40" as="geometry" />
        </mxCell>
        <mxCell id="KzoReMEz689WgL0waZI6-47" value="return" style="ellipse;whiteSpace=wrap;html=1;" vertex="1" parent="1">
          <mxGeometry x="625" y="570" width="120" height="50" as="geometry" />
        </mxCell>
        <mxCell id="KzoReMEz689WgL0waZI6-52" value="" style="swimlane;whiteSpace=wrap;html=1;" vertex="1" parent="1">
          <mxGeometry x="20" y="580" width="200" height="60" as="geometry" />
        </mxCell>
        <mxCell id="KzoReMEz689WgL0waZI6-53" value="endOfJob()" style="text;html=1;align=center;verticalAlign=middle;resizable=0;points=[];autosize=1;strokeColor=none;fillColor=none;" vertex="1" parent="KzoReMEz689WgL0waZI6-52">
          <mxGeometry x="60" y="28" width="80" height="30" as="geometry" />
        </mxCell>
        <mxCell id="KzoReMEz689WgL0waZI6-56" value="" style="endArrow=classic;html=1;rounded=0;entryX=0.5;entryY=0;entryDx=0;entryDy=0;" edge="1" parent="1" target="KzoReMEz689WgL0waZI6-7">
          <mxGeometry width="50" height="50" relative="1" as="geometry">
            <mxPoint x="120" y="290" as="sourcePoint" />
            <mxPoint x="170" y="240" as="targetPoint" />
          </mxGeometry>
        </mxCell>
        <mxCell id="KzoReMEz689WgL0waZI6-58" value="No" style="text;html=1;align=center;verticalAlign=middle;resizable=0;points=[];autosize=1;strokeColor=none;fillColor=none;" vertex="1" parent="1">
          <mxGeometry x="110" y="540" width="40" height="30" as="geometry" />
        </mxCell>
        <mxCell id="KzoReMEz689WgL0waZI6-62" value="" style="edgeStyle=orthogonalEdgeStyle;rounded=0;orthogonalLoop=1;jettySize=auto;html=1;entryX=0.5;entryY=0;entryDx=0;entryDy=0;" edge="1" parent="1" source="KzoReMEz689WgL0waZI6-59" target="KzoReMEz689WgL0waZI6-60">
          <mxGeometry relative="1" as="geometry" />
        </mxCell>
        <mxCell id="KzoReMEz689WgL0waZI6-59" value="endOfJob()" style="ellipse;whiteSpace=wrap;html=1;" vertex="1" parent="1">
          <mxGeometry x="60" y="760" width="120" height="50" as="geometry" />
        </mxCell>
        <mxCell id="KzoReMEz689WgL0waZI6-63" value="" style="edgeStyle=orthogonalEdgeStyle;rounded=0;orthogonalLoop=1;jettySize=auto;html=1;" edge="1" parent="1" source="KzoReMEz689WgL0waZI6-60" target="KzoReMEz689WgL0waZI6-61">
          <mxGeometry relative="1" as="geometry" />
        </mxCell>
        <mxCell id="KzoReMEz689WgL0waZI6-60" value="print&lt;div&gt;NO_MORE_JOBS&lt;/div&gt;" style="shape=parallelogram;perimeter=parallelogramPerimeter;whiteSpace=wrap;html=1;fixedSize=1;" vertex="1" parent="1">
          <mxGeometry x="45" y="830" width="150" height="40" as="geometry" />
        </mxCell>
        <mxCell id="KzoReMEz689WgL0waZI6-61" value="return" style="ellipse;whiteSpace=wrap;html=1;" vertex="1" parent="1">
          <mxGeometry x="60" y="890" width="120" height="50" as="geometry" />
        </mxCell>
        <mxCell id="KzoReMEz689WgL0waZI6-64" value="end" style="ellipse;whiteSpace=wrap;html=1;" vertex="1" parent="1">
          <mxGeometry x="60" y="660" width="120" height="50" as="geometry" />
        </mxCell>
        <mxCell id="KzoReMEz689WgL0waZI6-65" value="" style="edgeStyle=orthogonalEdgeStyle;rounded=0;orthogonalLoop=1;jettySize=auto;html=1;" edge="1" parent="1" source="KzoReMEz689WgL0waZI6-53" target="KzoReMEz689WgL0waZI6-64">
          <mxGeometry relative="1" as="geometry" />
        </mxCell>
      </root>
    </mxGraphModel>
  </diagram>
</mxfile>
